<?xml version="1.0" encoding="UTF-8" standalone="no"?>
<!-- Generator: Adobe Illustrator 17.1.0, SVG Export Plug-In . SVG Version: 6.00 Build 0)  -->

<svg
   xmlns:dc="http://purl.org/dc/elements/1.1/"
   xmlns:cc="http://creativecommons.org/ns#"
   xmlns:rdf="http://www.w3.org/1999/02/22-rdf-syntax-ns#"
   xmlns:svg="http://www.w3.org/2000/svg"
   xmlns="http://www.w3.org/2000/svg"
   xmlns:sodipodi="http://sodipodi.sourceforge.net/DTD/sodipodi-0.dtd"
   xmlns:inkscape="http://www.inkscape.org/namespaces/inkscape"
   version="1.1"
   id="Layer_1"
   x="0px"
   y="0px"
   viewBox="0 0 32 24"
   enable-background="new 0 0 50 50"
   xml:space="preserve"
   sodipodi:docname="hamburger-icon.svg"
   width="32"
   height="24"
   inkscape:version="0.92.4 (5da689c313, 2019-01-14)"><metadata
   id="metadata13"><rdf:RDF><cc:Work
       rdf:about=""><dc:format>image/svg+xml</dc:format><dc:type
         rdf:resource="http://purl.org/dc/dcmitype/StillImage" /><dc:title></dc:title></cc:Work></rdf:RDF></metadata><defs
   id="defs11" /><sodipodi:namedview
   pagecolor="#ffffff"
   bordercolor="#666666"
   borderopacity="1"
   objecttolerance="10"
   gridtolerance="10"
   guidetolerance="10"
   inkscape:pageopacity="0"
   inkscape:pageshadow="2"
   inkscape:window-width="1920"
   inkscape:window-height="1017"
   id="namedview9"
   showgrid="false"
   fit-margin-top="0"
   fit-margin-left="0"
   fit-margin-right="0"
   fit-margin-bottom="0"
   inkscape:zoom="4.72"
   inkscape:cx="-9.0441186"
   inkscape:cy="12"
   inkscape:window-x="1912"
   inkscape:window-y="-8"
   inkscape:window-maximized="1"
   inkscape:current-layer="Layer_1" />
<path
   d="M 1,2 H 31 C 31.552,2 32,1.553 32,1 32,0.447 31.552,0 31,0 H 1 C 0.448,0 0,0.447 0,1 0,1.553 0.447,2 1,2 Z"
   id="path2"
   style="fill:#f1e8c3;fill-opacity:1"
   inkscape:connector-curvature="0" />
<path
   d="m 1,24 h 30 c 0.552,0 1,-0.447 1,-1 0,-0.553 -0.448,-1 -1,-1 H 1 c -0.552,0 -1,0.447 -1,1 0,0.553 0.447,1 1,1 z"
   id="path4"
   style="fill:#f1e8c3;fill-opacity:1"
   inkscape:connector-curvature="0" />
<path
   d="m 1,13 h 30 c 0.552,0 1,-0.447 1,-1 0,-0.553 -0.448,-1 -1,-1 H 1 c -0.552,0 -1,0.447 -1,1 0,0.553 0.447,1 1,1 z"
   id="path6"
   style="fill:#f1e8c3;fill-opacity:1"
   inkscape:connector-curvature="0" />
</svg>