<svg xmlns="http://www.w3.org/2000/svg" viewBox="0 0 20 20"><defs><style>.cls-1{fill:#1a1a1a;}.cls-2{fill:none;}</style></defs><title>Asset 66</title><g id="Layer_2" data-name="Layer 2"><g id="Layer_1-2" data-name="Layer 1"><path class="cls-1" d="M17,4.86a.11.11,0,0,1-.09,0,.12.12,0,0,1,0-.17L17,4.59,17,4.53a.12.12,0,0,1,0-.17.11.11,0,0,1,.16,0l.17.16a.1.1,0,0,1,0,.1.11.11,0,0,1-.06.09l-.18.12Z"/><path class="cls-1" d="M16.68,4.18a.11.11,0,0,1-.08,0l-.37-.38a.12.12,0,0,1,0-.17.12.12,0,0,1,.16,0l.38.38a.14.14,0,0,1,0,.17Zm-.75-.76a.11.11,0,0,1-.08,0L15.47,3a.14.14,0,0,1,0-.17.11.11,0,0,1,.17,0l.38.38a.14.14,0,0,1,0,.17A.16.16,0,0,1,15.93,3.42Z"/><path class="cls-1" d="M14.91,2.7h-.06a.13.13,0,0,1,0-.16l.1-.2A.11.11,0,0,1,15,2.26a.1.1,0,0,1,.1,0l.17.17a.12.12,0,0,1,0,.17.12.12,0,0,1-.16,0l0-.06,0,.07A.11.11,0,0,1,14.91,2.7Z"/><path class="cls-1" d="M12.74,4.24h-.13a.12.12,0,0,1-.11-.13A.11.11,0,0,1,12.61,4h0a2.2,2.2,0,0,0,.45,0,.11.11,0,0,1,.14.09.13.13,0,0,1-.09.14A2.34,2.34,0,0,1,12.74,4.24Zm-5.48,0a2.19,2.19,0,0,1-.36,0A.12.12,0,1,1,7,4,1.35,1.35,0,0,0,7.4,4a.14.14,0,0,1,.13.11.13.13,0,0,1-.11.13Zm4.87-.09h0A3.56,3.56,0,0,1,11.63,4a.12.12,0,0,1-.05-.16.13.13,0,0,1,.16,0,2.56,2.56,0,0,0,.43.17.12.12,0,0,1,.08.15A.12.12,0,0,1,12.13,4.15Zm-4.24,0a.14.14,0,0,1-.12-.09.12.12,0,0,1,.08-.14,3.93,3.93,0,0,0,.43-.18A.12.12,0,1,1,8.39,4a3.56,3.56,0,0,1-.47.19ZM6.46,4.07h0A4.2,4.2,0,0,1,6,3.8a.12.12,0,0,1,0-.17.11.11,0,0,1,.16,0,2.73,2.73,0,0,0,.4.23A.12.12,0,0,1,6.57,4,.12.12,0,0,1,6.46,4.07Zm7.1,0A.12.12,0,0,1,13.45,4a.12.12,0,0,1,.06-.16,1.78,1.78,0,0,0,.39-.24.14.14,0,0,1,.17,0,.11.11,0,0,1,0,.16,1.94,1.94,0,0,1-.43.27Zm-2.3-.33-.06,0c-.13-.09-.27-.19-.4-.3a.12.12,0,0,1,0-.17.1.1,0,0,1,.16,0l.38.28a.11.11,0,0,1,0,.16A.11.11,0,0,1,11.26,3.73Zm-2.5,0a.1.1,0,0,1-.1,0,.11.11,0,0,1,0-.16c.12-.09.25-.18.38-.29a.11.11,0,0,1,.16,0,.11.11,0,0,1,0,.16c-.13.11-.27.21-.4.3A.07.07,0,0,1,8.76,3.71ZM5.68,3.5a.12.12,0,0,1-.09,0,3.05,3.05,0,0,1-.32-.38.11.11,0,0,1,0-.16.12.12,0,0,1,.17,0q.15.19.3.36a.12.12,0,0,1,0,.17A.11.11,0,0,1,5.68,3.5Zm8.66,0a.16.16,0,0,1-.09,0,.14.14,0,0,1,0-.17,2.6,2.6,0,0,0,.3-.36.12.12,0,0,1,.17,0,.11.11,0,0,1,0,.16,4.16,4.16,0,0,1-.32.39A.11.11,0,0,1,14.34,3.48Zm-3.83-.37-.08,0-.34-.36a.12.12,0,0,1,0-.17.11.11,0,0,1,.16,0l.34.35a.12.12,0,0,1,0,.16A.1.1,0,0,1,10.51,3.11Zm-1,0a.11.11,0,0,1-.08,0,.12.12,0,0,1,0-.17c.11-.11.22-.22.33-.35a.12.12,0,0,1,.17,0,.11.11,0,0,1,0,.16c-.12.13-.23.25-.35.36A.11.11,0,0,1,9.5,3.09Z"/><path class="cls-1" d="M5.09,2.7A.11.11,0,0,1,5,2.64a.16.16,0,0,1,0-.07l0,.06a.12.12,0,0,1-.17-.17l.17-.17a.11.11,0,0,1,.11,0,.11.11,0,0,1,.08.07l.1.2a.13.13,0,0,1,0,.16Z"/><path class="cls-1" d="M3.31,4.18a.11.11,0,0,1-.08,0,.12.12,0,0,1,0-.17l.38-.38a.12.12,0,0,1,.16,0,.12.12,0,0,1,0,.17l-.37.38Zm.76-.76a.16.16,0,0,1-.09,0,.14.14,0,0,1,0-.17l.38-.38a.1.1,0,0,1,.16,0,.12.12,0,0,1,0,.17l-.38.38A.11.11,0,0,1,4.07,3.42Z"/><path class="cls-1" d="M3,4.86l-.08,0-.17-.12a.11.11,0,0,1-.06-.09.1.1,0,0,1,0-.1l.17-.16a.11.11,0,0,1,.16,0,.12.12,0,0,1,0,.17L3,4.59,3,4.65a.12.12,0,0,1,0,.17A.11.11,0,0,1,3,4.86Z"/><path class="cls-1" d="M3.29,14.88a.11.11,0,0,1-.08,0,.11.11,0,0,1,0-.16l.27-.35a.11.11,0,0,1,.16,0,.12.12,0,0,1,0,.17c-.09.13-.19.25-.28.36A.12.12,0,0,1,3.29,14.88Zm.52-.73-.06,0a.12.12,0,0,1,0-.16l.21-.39a.11.11,0,0,1,.15-.06.12.12,0,0,1,.06.16c-.07.15-.15.28-.22.41A.11.11,0,0,1,3.81,14.15Zm.39-.82h0a.14.14,0,0,1-.07-.16,4.09,4.09,0,0,0,.16-.42.11.11,0,0,1,.14-.07.12.12,0,0,1,.08.15c0,.15-.1.29-.16.43A.1.1,0,0,1,4.2,13.33Zm.28-.85h0a.11.11,0,0,1-.08-.14c0-.14.07-.29.1-.44a.12.12,0,0,1,.14-.09.13.13,0,0,1,.09.14c0,.16-.07.3-.1.45A.13.13,0,0,1,4.48,12.48Zm.19-.89h0a.12.12,0,0,1-.1-.14L4.61,11a.11.11,0,0,1,.13-.1.11.11,0,0,1,.1.13l-.06.45A.12.12,0,0,1,4.67,11.59Zm.09-.9h0a.12.12,0,0,1-.11-.12c0-.15,0-.3,0-.45A.12.12,0,0,1,4.78,10h0a.12.12,0,0,1,.12.12c0,.15,0,.3,0,.45A.12.12,0,0,1,4.76,10.69Zm0-.9a.11.11,0,0,1-.11-.12c0-.15,0-.3,0-.44a.13.13,0,0,1,.12-.13.12.12,0,0,1,.12.11c0,.15,0,.3,0,.46a.12.12,0,0,1-.11.12Zm0-.9a.13.13,0,0,1-.12-.11c0-.15,0-.3,0-.44a.12.12,0,1,1,.24,0c0,.14,0,.29.05.45a.14.14,0,0,1-.11.13ZM4.62,8A.12.12,0,0,1,4.5,7.9l-.09-.44a.11.11,0,0,1,.08-.14.12.12,0,0,1,.14.09c0,.14.07.29.1.44A.12.12,0,0,1,4.64,8ZM4.4,7.12A.13.13,0,0,1,4.28,7a4.13,4.13,0,0,0-.14-.42.12.12,0,0,1,.06-.16.12.12,0,0,1,.15.07c.06.14.11.28.16.43a.12.12,0,0,1-.08.15Zm-.34-.84A.12.12,0,0,1,4,6.21l-.21-.38a.13.13,0,0,1,0-.17A.14.14,0,0,1,4,5.7c.08.13.15.27.22.41a.12.12,0,0,1-.06.16Zm-.47-.77a.12.12,0,0,1-.09,0c-.09-.12-.19-.23-.28-.33a.12.12,0,0,1,0-.17.12.12,0,0,1,.16,0,3.65,3.65,0,0,1,.31.36.11.11,0,0,1,0,.16A.09.09,0,0,1,3.59,5.51Z"/><path class="cls-1" d="M2.93,15.54a.18.18,0,0,1-.09,0l-.15-.18a.09.09,0,0,1,0-.09.11.11,0,0,1,0-.09A1.11,1.11,0,0,0,2.88,15,.11.11,0,0,1,3,15a.12.12,0,0,1,0,.17L3,15.26l.07.08a.12.12,0,0,1,0,.17A.11.11,0,0,1,2.93,15.54Z"/><path class="cls-1" d="M4.39,17.16a.1.1,0,0,1-.09,0l-.37-.41a.11.11,0,0,1,0-.16.12.12,0,0,1,.17,0l.36.4a.12.12,0,0,1,0,.17A.11.11,0,0,1,4.39,17.16Zm-.73-.81a.15.15,0,0,1-.09,0l-.36-.41a.11.11,0,0,1,.17-.15l.37.4a.14.14,0,0,1,0,.17A.13.13,0,0,1,3.66,16.35Z"/><path class="cls-1" d="M4.91,17.74a.1.1,0,0,1-.09,0l-.16-.17a.12.12,0,0,1,.18-.16l0,.05,0-.06a.13.13,0,0,1,.16,0,.11.11,0,0,1,0,.16l-.11.2a.11.11,0,0,1-.09.06Z"/><path class="cls-1" d="M10.15,17.72a.11.11,0,0,1-.08,0,.11.11,0,0,1,0-.16c.11-.13.23-.25.34-.36a.12.12,0,0,1,.17,0,.14.14,0,0,1,0,.17l-.34.34A.09.09,0,0,1,10.15,17.72Zm-.31,0a.1.1,0,0,1-.09,0l-.33-.34a.12.12,0,1,1,.16-.17c.11.11.23.23.34.36a.1.1,0,0,1,0,.16A.11.11,0,0,1,9.84,17.7Zm-4.53-.55a.11.11,0,0,1-.08,0,.12.12,0,0,1,0-.17,4,4,0,0,1,.35-.36.12.12,0,1,1,.16.17,3.47,3.47,0,0,0-.32.34A.14.14,0,0,1,5.31,17.15Zm9.37,0a.1.1,0,0,1-.09,0,3.51,3.51,0,0,0-.33-.34.11.11,0,0,1,0-.16.12.12,0,0,1,.17,0,4,4,0,0,1,.35.36.12.12,0,0,1,0,.17A.1.1,0,0,1,14.68,17.12ZM10.84,17a.11.11,0,0,1-.09,0,.14.14,0,0,1,0-.17l.4-.31a.12.12,0,0,1,.16,0,.12.12,0,0,1,0,.17,4.68,4.68,0,0,0-.37.29A.11.11,0,0,1,10.84,17Zm-1.7,0-.08,0c-.12-.11-.25-.21-.37-.3a.11.11,0,0,1,0-.16.11.11,0,0,1,.16,0,4.85,4.85,0,0,1,.4.31.11.11,0,0,1,0,.16A.11.11,0,0,1,9.14,17ZM6,16.49a.12.12,0,0,1-.09,0,.11.11,0,0,1,0-.16,2.2,2.2,0,0,1,.46-.23.12.12,0,0,1,.08.22,1.77,1.77,0,0,0-.41.21Zm5.62,0a.14.14,0,0,1-.11-.06.13.13,0,0,1,.05-.16,3.57,3.57,0,0,1,.46-.2.11.11,0,0,1,.15.07.11.11,0,0,1-.07.15,3.15,3.15,0,0,0-.43.19Zm2.31,0-.06,0a2.22,2.22,0,0,0-.41-.2.12.12,0,0,1-.08-.15.12.12,0,0,1,.15-.07,2.15,2.15,0,0,1,.46.22.12.12,0,0,1-.06.22Zm-5.61,0H8.28a2.35,2.35,0,0,0-.43-.19.12.12,0,1,1,.08-.22,3.05,3.05,0,0,1,.46.2.12.12,0,0,1,0,.16A.11.11,0,0,1,8.34,16.47Zm4.22-.3a.12.12,0,0,1-.12-.1.12.12,0,0,1,.1-.14,2.17,2.17,0,0,1,.51,0,.11.11,0,0,1,.11.12.12.12,0,0,1-.13.11,1.78,1.78,0,0,0-.46,0Zm-5.14,0h0a2.27,2.27,0,0,0-.45,0,.11.11,0,0,1-.13-.1.11.11,0,0,1,.1-.13,2.17,2.17,0,0,1,.51,0,.12.12,0,0,1,0,.24Z"/><path class="cls-1" d="M15.09,17.74h0a.11.11,0,0,1-.09-.06l-.11-.2a.11.11,0,0,1,0-.16.12.12,0,0,1,.16,0l0,.06,0-.05a.12.12,0,1,1,.18.16l-.16.17A.1.1,0,0,1,15.09,17.74Z"/><path class="cls-1" d="M15.61,17.16a.11.11,0,0,1-.07,0,.12.12,0,0,1,0-.17l.36-.4a.12.12,0,1,1,.18.16l-.37.4A.1.1,0,0,1,15.61,17.16Zm.73-.81a.13.13,0,0,1-.08,0,.14.14,0,0,1,0-.17l.37-.4a.11.11,0,0,1,.17.15l-.36.41A.15.15,0,0,1,16.34,16.35Z"/><path class="cls-1" d="M17.07,15.54a.11.11,0,0,1-.08,0,.12.12,0,0,1,0-.17l.07-.08L17,15.19A.13.13,0,0,1,17,15a.12.12,0,0,1,.17,0,1.11,1.11,0,0,0,.17.13.11.11,0,0,1,.05.09.09.09,0,0,1,0,.09l-.15.18A.18.18,0,0,1,17.07,15.54Z"/><path class="cls-1" d="M16.73,14.9a.13.13,0,0,1-.09,0,3.65,3.65,0,0,1-.29-.37.12.12,0,1,1,.19-.13c.09.12.18.24.27.34a.12.12,0,0,1,0,.17A.11.11,0,0,1,16.73,14.9Zm-.53-.74a.12.12,0,0,1-.1-.05c-.07-.13-.15-.26-.22-.41a.12.12,0,0,1,.06-.16.11.11,0,0,1,.15.06l.21.39a.12.12,0,0,1,0,.16Zm-.4-.81a.14.14,0,0,1-.11-.07l-.15-.43a.12.12,0,0,1,.07-.15.11.11,0,0,1,.15.07q.08.23.15.42a.11.11,0,0,1-.06.15Zm-.28-.85a.12.12,0,0,1-.11-.09c0-.14-.08-.29-.11-.45a.13.13,0,0,1,.09-.14.11.11,0,0,1,.14.09c0,.16.07.3.1.44a.11.11,0,0,1-.08.14Zm-.18-.89a.12.12,0,0,1-.12-.1c0-.14,0-.3-.06-.45a.12.12,0,0,1,.11-.13.11.11,0,0,1,.13.1c0,.16,0,.3,0,.45a.11.11,0,0,1-.09.13Zm-.1-.9a.12.12,0,0,1-.12-.11c0-.14,0-.3,0-.45a.12.12,0,0,1,.12-.12c.06,0,.11.05.12.11s0,.3,0,.45a.12.12,0,0,1-.11.12Zm0-.9h0a.11.11,0,0,1-.11-.12c0-.16,0-.31,0-.45a.13.13,0,0,1,.12-.12.13.13,0,0,1,.12.13c0,.14,0,.29,0,.44A.11.11,0,0,1,15.22,9.81Zm0-.9h0a.13.13,0,0,1-.11-.13c0-.16,0-.31,0-.46a.12.12,0,0,1,.13-.1.12.12,0,0,1,.1.14c0,.14,0,.29,0,.44A.13.13,0,0,1,15.26,8.91Zm.12-.9h0a.12.12,0,0,1-.1-.14c0-.15.07-.3.1-.44a.11.11,0,0,1,.14-.09.11.11,0,0,1,.09.14c0,.14-.07.28-.09.44A.12.12,0,0,1,15.38,8Zm.22-.87h0A.12.12,0,0,1,15.48,7c0-.15.1-.29.16-.43a.12.12,0,0,1,.15-.07.14.14,0,0,1,.07.16c-.06.13-.1.27-.15.41A.13.13,0,0,1,15.6,7.14Zm.33-.84h0a.12.12,0,0,1-.06-.16c.07-.14.14-.28.22-.41a.13.13,0,0,1,.16,0,.11.11,0,0,1,0,.16L16,6.23A.12.12,0,0,1,15.93,6.3Zm.46-.78a.11.11,0,0,1-.07,0,.11.11,0,0,1,0-.16q.15-.2.3-.36a.12.12,0,0,1,.17,0,.12.12,0,0,1,0,.16,3.17,3.17,0,0,0-.28.34A.12.12,0,0,1,16.39,5.52Z"/><path class="cls-1" d="M12.82,12.57a4.32,4.32,0,0,0-1.84.27A6.61,6.61,0,0,1,8.81,13l-.29-.05c.66-1,.21-3,0-3.34a6.22,6.22,0,0,0-.87-1.33,3.46,3.46,0,0,0-1.24-1c0,1.63.59,6.87,1.36,6.87l4.12,0c.52,0,1.12,0,1.34-.59A.75.75,0,0,0,12.82,12.57Z"/><polygon class="cls-1" points="7.61 14.46 7.96 14.77 12.6 14.77 12.87 14.46 7.61 14.46"/><path class="cls-1" d="M7.25,7.37c.11.09.3.32.47.26s.3-.71.26-1S7.74,6,7.35,6.08s-.59.51-.71.84l.05,0Z"/><path class="cls-1" d="M10,4.11H9.77a.13.13,0,0,0-.1.14.12.12,0,0,0,.12.1h0a.58.58,0,0,1,.19,0,.12.12,0,0,0,.12-.12A.13.13,0,0,0,10,4.11Zm-.61.17-.06,0-.05,0h0l-.1.07h0a.14.14,0,0,0,0,.17.12.12,0,0,0,.09,0,.11.11,0,0,0,.08,0,.91.91,0,0,1,.16-.11.13.13,0,0,0,0-.16.11.11,0,0,0-.1-.06Zm-.45.46a.12.12,0,0,0-.1,0,2.14,2.14,0,0,0-.1.22.12.12,0,0,0,.07.15h0A.11.11,0,0,0,9,5.09L9,4.91a.11.11,0,0,0,0-.16Zm-.15.61h0a.12.12,0,0,0-.12.12,1,1,0,0,0,0,.24.12.12,0,0,0,.11.09h0a.12.12,0,0,0,.1-.14.62.62,0,0,1,0-.19.13.13,0,0,0-.12-.12ZM9,6,8.91,6a.11.11,0,0,0,0,.16A1.33,1.33,0,0,0,9,6.33a.1.1,0,0,0,.09,0,.11.11,0,0,0,.07,0,.12.12,0,0,0,0-.17A.83.83,0,0,1,9.07,6,.11.11,0,0,0,9,6Zm.46.44a.11.11,0,0,0-.1.06.12.12,0,0,0,.05.16l.12.06h0l.05,0h0a.12.12,0,0,0,.11-.09.11.11,0,0,0-.07-.14.75.75,0,0,1-.18-.08Zm.84.11h0a1.25,1.25,0,0,1-.19,0,.11.11,0,0,0-.11.12.11.11,0,0,0,.11.11h0a.85.85,0,0,0,.23,0,.12.12,0,0,0,.09-.14.12.12,0,0,0-.11-.09Zm.56-.3a.11.11,0,0,0-.08,0,.61.61,0,0,1-.16.12.13.13,0,0,0,0,.17.12.12,0,0,0,.1,0l.06,0a1.33,1.33,0,0,0,.19-.14.12.12,0,0,0,0-.17.09.09,0,0,0-.08,0Zm.33-.54a.11.11,0,0,0-.11.09.87.87,0,0,1-.07.17.12.12,0,0,0,0,.16l.05,0A.12.12,0,0,0,11.19,6l.06-.15h0v0h0l0,0a.12.12,0,0,0-.08-.14Zm0-.64h0a.12.12,0,0,0-.09.14.63.63,0,0,1,0,.19.13.13,0,0,0,.12.11h0a.12.12,0,0,0,.11-.12h0v0h0a.19.19,0,0,1,0-.08h0a.64.64,0,0,1,0-.07A.12.12,0,0,0,11.18,5Zm-.31-.55-.09,0a.14.14,0,0,0,0,.17l.13.15a.12.12,0,0,0,.09,0l.07,0a.11.11,0,0,0,0-.16l0,0h0L11,4.51a.11.11,0,0,0-.08,0Zm-.55-.32a.11.11,0,0,0-.11.08.12.12,0,0,0,.08.15l.18.06,0,0a.14.14,0,0,0,.11-.07.13.13,0,0,0-.06-.16h0l-.12,0h-.13Z"/><rect class="cls-2" width="20" height="20"/></g></g></svg>